<?xml version="1.0" encoding="UTF-8" standalone="no"?>
<!-- Created with Inkscape (http://www.inkscape.org/) -->

<svg
   width="32"
   height="32"
   viewBox="0 0 8.4666665 8.4666666"
   version="1.1"
   id="svg1"
   xml:space="preserve"
   inkscape:version="1.4 (e7c3feb100, 2024-10-09)"
   sodipodi:docname="plugin.svg"
   xmlns:inkscape="http://www.inkscape.org/namespaces/inkscape"
   xmlns:sodipodi="http://sodipodi.sourceforge.net/DTD/sodipodi-0.dtd"
   xmlns="http://www.w3.org/2000/svg"
   xmlns:svg="http://www.w3.org/2000/svg"><sodipodi:namedview
     id="namedview1"
     pagecolor="#ffffff"
     bordercolor="#000000"
     borderopacity="0.25"
     inkscape:showpageshadow="2"
     inkscape:pageopacity="0.0"
     inkscape:pagecheckerboard="0"
     inkscape:deskcolor="#d1d1d1"
     inkscape:document-units="mm"
     inkscape:zoom="16.519978"
     inkscape:cx="23.910444"
     inkscape:cy="34.836609"
     inkscape:window-width="2560"
     inkscape:window-height="1368"
     inkscape:window-x="2560"
     inkscape:window-y="0"
     inkscape:window-maximized="1"
     inkscape:current-layer="layer1" /><defs
     id="defs1" /><g
     inkscape:label="Layer 1"
     inkscape:groupmode="layer"
     id="layer1"><g
       id="g8"
       transform="translate(-0.05476921,0.2012377)"><path
         style="fill:#c2da64;stroke-width:1"
         d="M 1.3602135,3.8272274 1.617812,2.9765343 1.8685773,2.5903525 2.1193427,2.2041704 h 0.031395 0.031395 L 2.0352605,3.1567527 1.8883889,4.109335 1.8043604,4.2123169 1.7203319,4.3153001 1.4114746,4.4966079 1.1026178,4.6779196 Z M 7.0446206,4.4231692 6.6809659,4.1760575 6.5558113,3.2814308 6.4306607,2.3868046 l 0.048762,-0.048761 0.048762,-0.048761 0.1786727,0.272693 0.1786767,0.272693 0.2910218,0.888155 0.2910219,0.8881539 -0.029659,0.029658 -0.029659,0.029659 z M 3.1793544,2.8659834 3.2438297,2.3586432 3.311889,1.6669223 3.3799483,0.97520142 3.5720376,0.8013609 3.7641308,0.62752089 V 1.7692696 2.9110184 L 3.4395073,3.1421712 3.1148837,3.3733241 Z M 5.068926,3.1007042 4.7855522,2.8735526 4.8154839,1.6892609 4.8454155,0.50496977 5.0193864,0.76242428 5.1933573,1.0198792 5.3124678,2.1342176 5.4315782,3.248556 l -0.03965,0.03965 -0.03965,0.03965 z"
         id="path5"
         sodipodi:nodetypes="cccccccccccccccccccccccccccccccccccccccccccccccc" /><path
         style="fill:#61848d;stroke-width:1"
         d="M 1.7357341,7.3544333 2.6423204,7.1706344 2.7046434,7.1083114 2.7669651,7.0459897 2.9201789,5.5638059 3.0733925,4.0816198 3.4210814,3.9158184 3.7687741,3.7500167 3.740711,5.6288762 3.712648,7.5077363 2.2709006,7.5229939 0.82915523,7.5382515 Z M 4.8626029,7.4905717 4.7939474,7.4219162 V 5.5854075 3.748898 h 0.056604 0.056604 l 0.303835,0.1571175 0.3038313,0.1571171 0.00195,0.1775736 0.00195,0.177574 0.1490645,1.3267864 0.1490685,1.3267827 0.049392,0.049392 0.049392,0.049392 0.9065853,0.1822342 0.9065894,0.182234 -1.3988394,0.01206 -1.3988355,0.01206 z M 0.54364396,6.7660569 0.49733279,6.6838807 0.73731672,5.9063537 0.97730016,5.1288228 1.3443905,4.9537699 1.7114806,4.7787169 h 0.029776 0.029776 L 1.6492002,5.5553409 1.5273678,6.331965 1.7278638,6.4723965 1.9283595,6.612828 1.7391911,6.665443 1.5500222,6.718058 1.0699894,6.783148 0.58995704,6.848238 Z M 7.19019,6.7415742 6.7544277,6.6705569 6.6932656,6.6093948 6.6320996,6.5482288 6.8545521,6.4776282 7.0770046,6.4070226 7.0202059,6.1807207 6.9634072,5.9544188 6.8931015,5.3562184 6.8227958,4.7580142 7.2110338,4.9571911 7.599268,5.156372 l 0.2398041,0.7563416 0.2398002,0.7563456 -0.05232,0.084656 -0.05232,0.084656 -0.1741422,-0.012883 -0.1741422,-0.012883 z"
         id="path3" /></g></g></svg>
